Coordinates
version=1
nRows=24
nColumns=24
inDegrees=yes

Units are S.I. units (second, meters, Newtons, ...)
Angles are in degrees.

endheader
time	pelvis_tilt	pelvis_list	pelvis_rotation	pelvis_tx	pelvis_ty	pelvis_tz	hip_flexion_r	hip_adduction_r	hip_rotation_r	knee_angle_r	ankle_angle_r	subtalar_angle_r	mtp_angle_r	hip_flexion_l	hip_adduction_l	hip_rotation_l	knee_angle_l	ankle_angle_l	subtalar_angle_l	mtp_angle_l	lumbar_extension	lumbar_bending	lumbar_rotation
      6.97000000	     45.34672054	     -4.86869367	     -0.90274943	      0.57552729	      1.08383873	     -0.34121749	     27.04965972	     -6.44413923	     -8.20150324	    -74.31263692	    -27.44577881	    -18.68319809	      0.00000000	     27.21652475	    -20.63127202	     -0.10783044	    -93.47044871	    -29.11710884	      1.77685184	      0.00000000	      0.00000000	      0.00000000	      0.00000000
      6.98000000	     45.33902666	     -4.86956464	     -0.89622674	      0.57554123	      1.08382624	     -0.34121170	     27.05525529	     -6.44495732	     -8.20431561	    -74.31266884	    -27.44879770	    -18.69364395	      0.00000000	     27.23055955	    -20.63769664	     -0.06474729	    -93.54070860	    -29.11870075	      1.76225201	      0.00000000	      0.00000000	      0.00000000	      0.00000000
      6.99000000	     45.33457155	     -4.86898158	     -0.89215830	      0.57554326	      1.08382244	     -0.34120497	     27.05796940	     -6.44626187	     -8.20462742	    -74.31214875	    -27.45239003	    -18.70037484	      0.00000000	     27.23872367	    -20.63774478	     -0.04575148	    -93.53766216	    -29.12505775	      1.77319565	      0.00000000	      0.00000000	      0.00000000	      0.00000000
      7.00000000	     45.33412051	     -4.86686761	     -0.89083821	      0.57553320	      1.08383691	     -0.34119416	     27.05730621	     -6.44836882	     -8.20167876	    -74.31149980	    -27.45549407	    -18.70226557	      0.00000000	     27.23977721	    -20.63152770	     -0.05223518	    -93.46268888	    -29.13497396	      1.80299014	      0.00000000	      0.00000000	      0.00000000	      0.00000000
      7.01000000	     45.33830417	     -4.86364945	     -0.89211335	      0.57551484	      1.08385758	     -0.34118219	     27.05318335	     -6.45157712	     -8.19530859	    -74.31082288	    -27.45698935	    -18.69902580	      0.00000000	     27.23326061	    -20.61910633	     -0.08618172	    -93.31700839	    -29.14617232	      1.84323739	      0.00000000	      0.00000000	      0.00000000	      0.00000000
      7.02000000	     45.34728388	     -4.85987856	     -0.89570971	      0.57548987	      1.08386987	     -0.34118242	     27.04587381	     -6.45606820	     -8.18624445	    -74.30990858	    -27.45577335	    -18.69124260	      0.00000000	     27.21970502	    -20.60056005	     -0.14928533	    -93.10199556	    -29.15595437	      1.88549905	      0.00000000	      0.00000000	      0.00000000	      0.00000000
      7.03000000	     45.36008086	     -4.85581359	     -0.90095816	      0.57545535	      1.08386894	     -0.34120166	     27.03589134	     -6.46171988	     -8.17601562	    -74.30825085	    -27.45088987	    -18.68024354	      0.00000000	     27.20035711	    -20.57602328	     -0.24210377	    -92.81938996	    -29.16206083	      1.92292182	      0.00000000	      0.00000000	      0.00000000	      0.00000000
      7.04000000	     45.37455055	     -4.85131097	     -0.90634906	      0.57540995	      1.08386110	     -0.34122596	     27.02393326	     -6.46803460	     -8.16643300	    -74.30501942	    -27.44169532	    -18.66783696	      0.00000000	     27.17699292	    -20.54568184	     -0.36366669	    -92.47105708	    -29.16346134	      1.95150657	      0.00000000	      0.00000000	      0.00000000	      0.00000000
      7.05000000	     45.38835518	     -4.84591399	     -0.90989719	      0.57535855	      1.08386588	     -0.34123458	     27.01084385	     -6.47439132	     -8.15889551	    -74.29913727	    -27.42806289	    -18.65597521	      0.00000000	     27.15201617	    -20.50985965	     -0.51148203	    -92.05856538	    -29.16076561	      1.97071650	      0.00000000	      0.00000000	      0.00000000	      0.00000000
      7.06000000	     45.39972559	     -4.83921981	     -0.91007272	      0.57530833	      1.08390100	     -0.34122135	     26.99739884	     -6.48043435	     -8.15393789	    -74.28958110	    -27.41058056	    -18.64639278	      0.00000000	     27.12807160	    -20.46900800	     -0.68199039	    -91.58312309	    -29.15613278	      1.98322395	      0.00000000	      0.00000000	      0.00000000	      0.00000000
      7.07000000	     45.40736872	     -4.83118305	     -0.90641391	      0.57526451	      1.08396283	     -0.34119399	     26.98405288	     -6.48620164	     -8.15128004	    -74.27578212	    -27.39058122	    -18.64031635	      0.00000000	     27.10692203	    -20.42362306	     -0.87135235	    -91.04600102	    -29.15270169	      1.99374866	      0.00000000	      0.00000000	      0.00000000	      0.00000000
      7.08000000	     45.41055663	     -4.82192452	     -0.89963249	      0.57523017	      1.08403565	     -0.34115765	     26.97094518	     -6.49184157	     -8.15028449	    -74.25784153	    -27.36987623	    -18.63834492	      0.00000000	     27.08870721	    -20.37427018	     -1.07633640	    -90.44914616	    -29.15365822	      2.00723111	      0.00000000	      0.00000000	      0.00000000	      0.00000000
      7.09000000	     45.40978728	     -4.81154111	     -0.89124760	      0.57520347	      1.08411172	     -0.34110954	     26.95801320	     -6.49723142	     -8.15040705	    -74.23647113	    -27.35034200	    -18.64052795	      0.00000000	     27.07233242	    -20.32155948	     -1.29535068	    -89.79559195	    -29.16129772	      2.02702757	      0.00000000	      0.00000000	      0.00000000	      0.00000000
      7.10000000	     45.40718957	     -4.80038313	     -0.88282796	      0.57517416	      1.08419158	     -0.34105337	     26.94503032	     -6.50200495	     -8.15128252	    -74.21277323	    -27.33365761	    -18.64659890	      0.00000000	     27.05644260	    -20.26602847	     -1.52919500	    -89.08931930	    -29.17651535	      2.05394159	      0.00000000	      0.00000000	      0.00000000	      0.00000000
      7.11000000	     45.40594553	     -4.78936702	     -0.87524813	      0.57513188	      1.08427526	     -0.34100283	     26.93155811	     -6.50596818	     -8.15255547	    -74.18798067	    -27.32139201	    -18.65625256	      0.00000000	     27.04011851	    -20.20802419	     -1.78065656	    -88.33462214	    -29.19879733	      2.08643608	      0.00000000	      0.00000000	      0.00000000	      0.00000000
      7.12000000	     45.40862914	     -4.77954959	     -0.86848392	      0.57507787	      1.08435821	     -0.34096163	     26.91686292	     -6.50935399	     -8.15379179	    -74.16314762	    -27.31533991	    -18.66935728	      0.00000000	     27.02269651	    -20.14764284	     -2.05261344	    -87.53560078	    -29.22645909	      2.12175778	      0.00000000	      0.00000000	      0.00000000	      0.00000000
      7.13000000	     45.41558078	     -4.77103845	     -0.86213451	      0.57501745	      1.08443170	     -0.34091888	     26.90010623	     -6.51267127	     -8.15455201	    -74.13873333	    -27.31761526	    -18.68609809	      0.00000000	     27.00296269	    -20.08479828	     -2.34554469	    -86.69625326	    -29.25689646	      2.15738167	      0.00000000	      0.00000000	      0.00000000	      0.00000000
      7.14000000	     45.42523030	     -4.76246249	     -0.85629635	      0.57495218	      1.08449388	     -0.34087155	     26.88072265	     -6.51637997	     -8.15454256	    -74.11441687	    -27.33027129	    -18.70701028	      0.00000000	     26.97935675	    -20.01921957	     -2.65636678	    -85.82058264	    -29.28678179	      2.19214618	      0.00000000	      0.00000000	      0.00000000	      0.00000000
      7.15000000	     45.43607946	     -4.75212949	     -0.85170048	      0.57488788	      1.08455909	     -0.34083003	     26.85865021	     -6.52075622	     -8.15374332	    -74.08944393	    -27.35473633	    -18.73278979	      0.00000000	     26.95136187	    -19.95017176	     -2.97979565	    -84.91232023	    -29.31233143	      2.22669627	      0.00000000	      0.00000000	      0.00000000	      0.00000000
      7.16000000	     45.44763122	     -4.73977909	     -0.84870099	      0.57483024	      1.08463904	     -0.34079690	     26.83434460	     -6.52599724	     -8.15245896	    -74.06319623	    -27.39135471	    -18.76388522	      0.00000000	     26.91986642	    -19.87642109	     -3.31096931	    -83.97499454	    -29.32981305	      2.26322388	      0.00000000	      0.00000000	      0.00000000	      0.00000000
      7.17000000	     45.45988660	     -4.72659557	     -0.84665177	      0.57477444	      1.08472741	     -0.34076225	     26.80856236	     -6.53227703	     -8.15131223	    -74.03554526	    -27.43914583	    -18.80003912	      0.00000000	     26.88627341	    -19.79698053	     -3.64697914	    -83.01245035	    -29.33623423	      2.30472826	      0.00000000	      0.00000000	      0.00000000	      0.00000000
      7.18000000	     45.47296164	     -4.71365464	     -0.84459928	      0.57471237	      1.08481467	     -0.34072182	     26.78200580	     -6.53969099	     -8.15102761	    -74.00682721	    -27.49576005	    -18.84000922	      0.00000000	     26.85183747	    -19.71200299	     -3.98664594	    -82.02911140	    -29.32996649	      2.35412449	      0.00000000	      0.00000000	      0.00000000	      0.00000000
      7.19000000	     45.48708855	     -4.70096361	     -0.84219156	      0.57464391	      1.08490066	     -0.34068503	     26.75507547	     -6.54822862	     -8.15191879	    -73.97760860	    -27.55758217	    -18.88161483	      0.00000000	     26.81747171	    -19.62284980	     -4.32958704	    -81.02972051	    -29.31105569	      2.41351620	      0.00000000	      0.00000000	      0.00000000	      0.00000000
      7.20000000	     45.50256090	     -4.68802089	     -0.83968966	      0.57457653	      1.08499044	     -0.34066077	     26.72783368	     -6.55772955	     -8.15343542	    -73.94859529	    -27.62004944	    -18.92208461	      0.00000000	     26.78368892	    -19.53121567	     -4.67570531	    -80.01888109	    -29.28108458	      2.48382252	      0.00000000	      0.00000000	      0.00000000	      0.00000000
